<?xml version="1.0" encoding="UTF-8" standalone="no"?>
<!DOCTYPE svg PUBLIC "-//W3C//DTD SVG 1.1//EN" "http://www.w3.org/Graphics/SVG/1.1/DTD/svg11.dtd">
<!-- Created with Vectornator (http://vectornator.io/) -->
<svg height="100%" stroke-miterlimit="10" style="fill-rule:nonzero;clip-rule:evenodd;stroke-linecap:round;stroke-linejoin:round;" version="1.1" viewBox="0 0 1024 1024" width="100%" xml:space="preserve" xmlns="http://www.w3.org/2000/svg" xmlns:vectornator="http://vectornator.io" xmlns:xlink="http://www.w3.org/1999/xlink">
<defs/>
<g id="Icone" vectornator:layerName="Icone">
<path d="M0 512C0 229.23 229.23 0 512 0C794.77 0 1024 229.23 1024 512C1024 794.77 794.77 1024 512 1024C229.23 1024 0 794.77 0 512Z" fill="#4b5e6d" fill-rule="nonzero" opacity="1" stroke="none" vectornator:layerName="bg"/>
<path d="M481.816 89.4867C719.75 63.1569 851.844 280.115 851.844 280.115C851.844 280.115 876.312 322.518 886.117 374.31C891.385 402.143 897.418 448.319 887.746 487.83C879.42 521.843 856.604 550.261 844.874 565.414C819.517 598.172 702.281 702.956 534.96 688.96C449.61 681.82 330.386 655.994 266.636 598.993C204.916 543.807 170.251 481.726 170.251 481.726L132.502 488.955C132.502 488.955 113.114 404.85 152.727 318.795C194.116 228.881 276.36 112.223 481.816 89.4867Z" fill="#ffffff" fill-rule="nonzero" opacity="1" stroke="none" vectornator:layerName="tête"/>
<g opacity="1" vectornator:layerName="yeux">
<path d="M320.275 416.843C320.275 383.566 347.422 356.59 380.911 356.59C414.399 356.59 441.547 383.566 441.547 416.843C441.547 450.12 414.399 477.096 380.911 477.096C347.422 477.096 320.275 450.12 320.275 416.843Z" fill="#4b5e6d" fill-rule="nonzero" opacity="1" stroke="none" vectornator:layerName="gauche"/>
<path d="M636.913 416.843C636.913 383.566 664.061 356.59 697.549 356.59C731.038 356.59 758.185 383.566 758.185 416.843C758.185 450.12 731.038 477.096 697.549 477.096C664.061 477.096 636.913 450.12 636.913 416.843Z" fill="#4b5e6d" fill-rule="nonzero" opacity="1" stroke="none" vectornator:layerName="droit"/>
</g>
<path d="M441.941 507.686C441.941 507.686 462.395 445.92 526.778 445.523C598.094 445.083 615.556 506.905 615.556 506.905C615.556 506.905 589.245 513.704 567.757 527.557C546.269 541.411 529.604 562.321 529.604 562.321C529.604 562.321 511.692 540.241 489.776 526.583C467.86 512.924 441.941 507.686 441.941 507.686Z" fill="#fff0b1" fill-rule="nonzero" opacity="1" stroke="none" vectornator:layerName="Bec"/>
<path d="M887.216 484.835C912.65 497.222 944.643 514.89 944.683 569.947C944.724 625.005 893.473 696.181 887.378 705.065C882.338 712.413 825.871 807.957 758.899 854.359C723.576 878.833 657.985 903.76 595.934 913.429C532.469 923.318 472.597 917.631 442.655 914.148C413.628 910.772 308.762 884.292 233.877 824.669C192.929 792.066 114.044 694.977 79.9726 620.011C45.9014 545.044 144.592 458.934 170.956 482.872C192.525 502.457 216.046 545.673 252.305 579.324C296.077 619.947 353.237 650.474 380.308 658.866C422.075 671.814 588.483 695.379 696.888 661.565C802.232 628.706 850.197 538.693 852.686 533.59C856.354 526.067 883.301 482.928 887.216 484.835Z" fill="#ddbcff" fill-rule="nonzero" opacity="1" stroke="none" vectornator:layerName="Courbe 1"/>
<path d="M539.23 698.879L509.485 750.607L450.785 762.733L491.101 806.828L484.568 866.05L539.23 841.575L593.892 866.05L587.358 806.828L627.675 762.733L568.975 750.607L539.23 698.879Z" fill="#fff0b1" fill-rule="nonzero" opacity="1" stroke="none" vectornator:layerName="Étoile 1"/>
</g>
</svg>
